<svg xmlns="http://www.w3.org/2000/svg"
 xmlns:xlink="http://www.w3.org/1999/xlink"
 width="19px" height="18px"  viewBox="0 0 19 18" id="icon">
<path fill-rule="evenodd"  fill="#ffffff"
 d="M17.45227,1.715332 C17.401962,1.6768799 17.334076,1.670044 17.278687,1.6988525 C17.278687,1.6988525 1.6048126,9.634644 1.6048126,9.634644 C1.5458984,9.664307 1.5119324,9.725464 1.5170746,9.790405 C1.5228271,9.854736 1.5669861,9.909912 1.6291199,9.930176 C1.6291199,9.930176 6.589691,11.492065 6.589691,11.492065 C6.6441345,11.509399 6.704315,11.496948 6.746292,11.458496 C6.746292,11.458496 14.291351,5.072632 14.291351,5.072632 C14.291351,5.072632 8.495987,11.864502 8.495987,11.864502 C8.46106,11.905273 8.449219,11.96106 8.464264,12.012817 C8.47998,12.064209 8.520294,12.104736 8.572174,12.120239 C8.572174,12.120239 14.39415,13.876465 14.39415,13.876465 C14.409531,13.880737 14.425186,13.883423 14.440903,13.883423 C14.468735,13.883423 14.496613,13.875732 14.52095,13.862305 C14.559372,13.839844 14.58754,13.803955 14.598129,13.760986 C14.598129,13.760986 17.508621,1.8791504 17.508621,1.8791504 C17.523346,1.8179932 17.501266,1.7542725 17.45227,1.715332 ZM10.275772,13.855469 C10.275772,13.855469 8.666992,13.365234 8.666992,13.365234 C8.618286,13.349487 8.564804,13.359009 8.523499,13.389282 C8.481888,13.419556 8.4578705,13.467407 8.4578705,13.518188 C8.4578705,13.518188 8.4578705,16.525146 8.4578705,16.525146 C8.4578705,16.596436 8.505249,16.658691 8.574738,16.678833 C8.589157,16.68274 8.604202,16.685059 8.619583,16.685059 C8.673691,16.685059 8.72525,16.657593 8.755997,16.610596 C8.755997,16.610596 10.364777,14.093628 10.364777,14.093628 C10.391998,14.051758 10.397461,13.999268 10.379837,13.953003 C10.362228,13.90625 10.323822,13.870239 10.275772,13.855469 Z"/>
</svg>