<svg xmlns="http://www.w3.org/2000/svg"
 xmlns:xlink="http://www.w3.org/1999/xlink"
 width="15px" height="19px"  viewBox="0 0 15 19" id="icon">
<path fill-rule="evenodd"  fill="#ffffff"
 d="M13.2196045,15.013306 C13.2196045,15.013306 10.154877,6.74646 10.154877,6.74646 C10.154877,6.74646 10.154877,4.313965 10.154877,4.313965 C10.733017,4.114441 11.149231,3.5685425 11.149231,2.928772 C11.149231,2.928772 11.149231,2.5319824 11.149231,2.5319824 C11.149231,1.7230835 10.4856415,1.0656128 9.669922,1.0656128 C9.669922,1.0656128 5.2955017,1.0656128 5.2955017,1.0656128 C4.479782,1.0656128 3.8161774,1.7230835 3.8161774,2.5319824 C3.8161774,2.5319824 3.8161774,2.928772 3.8161774,2.928772 C3.8161774,3.5681763 4.231262,4.1133423 4.810837,4.3135376 C4.810837,4.3135376 4.810837,6.74646 4.810837,6.74646 C4.810837,6.74646 1.7519226,14.997131 1.7519226,14.997131 C1.5655975,15.449402 1.618866,15.962219 1.8941345,16.369385 C2.1696014,16.774963 2.6283875,17.016785 3.1218567,17.016785 C3.1218567,17.016785 11.8437195,17.016785 11.8437195,17.016785 C12.337189,17.016785 12.79599,16.774963 13.071274,16.368591 C13.346542,15.962219 13.399811,15.449951 13.2196045,15.013306 ZM5.109436,13.13916 C5.109436,12.861816 5.334915,12.639404 5.6123962,12.639404 C5.8920746,12.639404 6.117676,12.861816 6.117676,13.13916 C6.117676,13.4158325 5.8920746,13.638733 5.6123962,13.638733 C5.334915,13.638733 5.109436,13.4158325 5.109436,13.13916 ZM8.358978,13.574951 C8.840775,13.574951 9.230331,13.962524 9.230331,14.437378 C9.230331,14.914368 8.840775,15.302185 8.358978,15.302185 C7.876709,15.302185 7.4880524,14.914368 7.4880524,14.437378 C7.4880524,13.962524 7.876709,13.574951 8.358978,13.574951 ZM7.617325,11.682312 C7.617325,11.340454 7.898773,11.060181 8.246094,11.060181 C8.591507,11.060181 8.872787,11.340454 8.872787,11.682312 C8.872787,12.025452 8.591507,12.304565 8.246094,12.304565 C7.898773,12.304565 7.617325,12.025452 7.617325,11.682312 ZM5.789276,6.918701 C5.789276,6.918701 5.789276,3.9100952 5.789276,3.9100952 C5.789276,3.9100952 5.784851,3.4249878 5.784851,3.4249878 C5.784851,3.4249878 5.2955017,3.4249878 5.2955017,3.4249878 C5.0194244,3.4249878 4.7946167,3.2023926 4.7946167,2.928772 C4.7946167,2.928772 4.7946167,2.5319824 4.7946167,2.5319824 C4.7946167,2.2579346 5.0194244,2.0355225 5.2955017,2.0355225 C5.2955017,2.0355225 9.669922,2.0355225 9.669922,2.0355225 C9.945984,2.0355225 10.170654,2.2579346 10.170654,2.5319824 C10.170654,2.5319824 10.170654,2.928772 10.170654,2.928772 C10.170654,3.2023926 9.945984,3.4249878 9.665497,3.4249878 C9.665497,3.4249878 9.1763,3.4249878 9.1763,3.4249878 C9.1763,3.4249878 9.1763,6.918701 9.1763,6.918701 C9.1763,6.918701 10.034592,9.233459 10.034592,9.233459 C10.023087,9.244324 10.01297,9.251587 10.001312,9.263367 C9.362305,9.921387 4.692932,9.997498 4.692932,9.997498 C4.692932,9.997498 4.647827,9.997498 4.647827,9.997498 C4.647827,9.997498 5.789276,6.918701 5.789276,6.918701 ZM7.1424713,8.786987 C7.517395,8.786987 7.822937,8.483826 7.822937,8.110657 C7.822937,7.7391357 7.517395,7.4353027 7.1424713,7.4353027 C6.7653503,7.4353027 6.460251,7.7391357 6.460251,8.110657 C6.460251,8.483826 6.7653503,8.786987 7.1424713,8.786987 Z"/>
</svg>