<svg xmlns="http://www.w3.org/2000/svg"
 xmlns:xlink="http://www.w3.org/1999/xlink"
 width="19px" height="19px"  viewBox="0 0 19 19" id="icon">
<path fill-rule="evenodd" fill="#ffffff"
 d="M16.616669,5.1485596 C16.616669,5.1485596 10.936356,5.1485596 10.936356,5.1485596 C10.936356,5.1485596 13.177002,2.4661865 13.177002,2.4661865 C13.21286,2.4726562 13.243713,2.486267 13.280869,2.486267 C13.649689,2.486267 13.948029,2.1887817 13.948029,1.8205566 C13.948029,1.4544678 13.649689,1.1549683 13.280869,1.1549683 C12.913925,1.1549683 12.6137085,1.4544678 12.6137085,1.8205566 C12.6137085,1.901062 12.63385,1.9751587 12.659622,2.0461426 C12.659622,2.0461426 10.06781,5.1485596 10.06781,5.1485596 C10.06781,5.1485596 9.823578,5.1485596 9.823578,5.1485596 C9.823578,5.1485596 7.2329865,2.0461426 7.2329865,2.0461426 C7.2581177,1.9751587 7.277649,1.901062 7.277649,1.8205566 C7.277649,1.4544678 6.9793243,1.1549683 6.610504,1.1549683 C6.24292,1.1549683 5.9433136,1.4544678 5.9433136,1.8205566 C5.9433136,2.1887817 6.24292,2.486267 6.610504,2.486267 C6.6476135,2.486267 6.6797485,2.4726562 6.71434,2.4661865 C6.71434,2.4661865 8.955643,5.1485596 8.955643,5.1485596 C8.955643,5.1485596 3.275299,5.1485596 3.275299,5.1485596 C2.53891,5.1485596 1.9416199,5.745178 1.9416199,6.479187 C1.9416199,6.479187 1.9416199,15.7977295 1.9416199,15.7977295 C1.9416199,16.532654 2.53891,17.12854 3.275299,17.12854 C3.275299,17.12854 16.616669,17.12854 16.616669,17.12854 C17.353088,17.12854 17.950378,16.532654 17.950378,15.7977295 C17.950378,15.7977295 17.950378,6.479187 17.950378,6.479187 C17.950378,5.745178 17.353088,5.1485596 16.616669,5.1485596 ZM13.948029,14.466431 C13.948029,15.201355 13.351364,15.7977295 12.6137085,15.7977295 C12.6137085,15.7977295 4.6096497,15.7977295 4.6096497,15.7977295 C3.87323,15.7977295 3.275299,15.201355 3.275299,14.466431 C3.275299,14.466431 3.275299,7.810791 3.275299,7.810791 C3.275299,7.0753174 3.87323,6.479187 4.6096497,6.479187 C4.6096497,6.479187 12.6137085,6.479187 12.6137085,6.479187 C13.351364,6.479187 13.948029,7.0753174 13.948029,7.810791 C13.948029,7.810791 13.948029,14.466431 13.948029,14.466431 ZM15.913635,8.517883 C15.387482,8.517883 14.960739,8.091553 14.960739,7.5670776 C14.960739,7.042053 15.387482,6.6168213 15.913635,6.6168213 C16.439209,6.6168213 16.865921,7.042053 16.865921,7.5670776 C16.865921,8.091553 16.439209,8.517883 15.913635,8.517883 Z"/>
</svg>