<svg xmlns="http://www.w3.org/2000/svg"
 xmlns:xlink="http://www.w3.org/1999/xlink"
 width="19px" height="19px"  viewBox="0 0 19 19" id="icon">
<path fill-rule="evenodd"  fill="#ffffff"
 d="M15.269318,15.428711 C14.667343,15.386108 13.978394,15.352417 13.234848,15.326904 C13.91333,14.736816 14.486084,13.971802 14.907135,13.081787 C15.112732,13.289185 15.36824,13.44043 15.657806,13.511108 C15.784546,13.542358 15.912689,13.557617 16.039886,13.557617 C16.331055,13.557617 16.617432,13.477051 16.8723,13.320557 C17.238663,13.095215 17.49643,12.739868 17.597504,12.31958 C17.698822,11.898926 17.631561,11.464233 17.408325,11.095093 C17.03418,10.475586 16.312302,10.206665 15.649048,10.373169 C15.677841,10.084717 15.697418,9.79248 15.697418,9.494019 C15.697418,9.182617 15.447433,8.93042 15.138504,8.93042 C15.138504,8.93042 4.792679,8.93042 4.792679,8.93042 C4.4840393,8.93042 4.2337494,9.182617 4.2337494,9.494019 C4.2337494,11.907349 5.2086334,14.039795 6.6931458,15.327515 C5.950882,15.352905 5.263031,15.386353 4.6619873,15.428711 C2.56958,15.576294 1.9612122,15.716797 1.9612122,16.362793 C1.9612122,17.008423 2.56958,17.149048 4.6619873,17.296753 C6.080612,17.39685 7.9642334,17.452148 9.965652,17.452148 C11.966919,17.452148 13.850525,17.39685 15.269318,17.296753 C17.361725,17.149048 17.969925,17.008423 17.969925,16.362793 C17.969925,15.716797 17.361725,15.576294 15.269318,15.428711 ZM15.537262,11.136597 C15.541412,11.133911 15.546173,11.134277 15.5503235,11.131592 C15.990448,10.861328 16.56717,11.002563 16.835571,11.446655 C16.965637,11.661621 17.004578,11.914917 16.945618,12.160034 C16.88675,12.404907 16.737015,12.611572 16.523285,12.742554 C16.310059,12.874268 16.058502,12.91333 15.816177,12.854126 C15.5733795,12.794556 15.367935,12.643433 15.238174,12.4279785 C15.227692,12.410278 15.211472,12.399292 15.198303,12.384644 C15.341522,11.986206 15.454285,11.5686035 15.537262,11.136597 ZM5.3719635,10.057495 C5.3719635,10.057495 14.559418,10.057495 14.559418,10.057495 C14.339783,13.096069 12.363327,15.481812 9.965652,15.481812 C7.567993,15.481812 5.59169,13.096069 5.3719635,10.057495 ZM8.92926,7.7781982 C8.92926,7.7781982 8.966934,7.779785 8.966934,7.779785 C9.104309,7.779785 9.236908,7.7143555 9.321991,7.6036377 C9.416306,7.4804688 9.441269,7.319336 9.388947,7.1740723 C9.38446,7.161377 8.955795,5.9157715 9.512466,4.878296 C10.103394,3.8903809 10.295929,3.0947266 10.084442,2.513916 C9.894562,1.9921875 9.46637,1.8536377 9.419312,1.8400879 C9.184784,1.770874 8.930511,1.9093018 8.861359,2.1444092 C8.791077,2.3833008 8.926727,2.6358643 9.144852,2.6999512 C9.1474,2.7008057 9.207855,2.7312012 9.242508,2.8260498 C9.293396,2.965454 9.347595,3.397461 8.758652,4.387451 C8.758652,4.387451 8.737015,4.42395 8.737015,4.42395 C8.692017,4.498657 8.643478,4.576172 8.591034,4.6571045 C7.9095306,5.7105713 7.705368,6.5405273 7.984268,7.1219482 C8.208618,7.591675 8.681671,7.755127 8.92926,7.7781982 ZM11.31485,7.8619385 C11.31485,7.8619385 11.346176,7.862915 11.346176,7.862915 C11.47496,7.862915 11.599304,7.801758 11.679108,7.6983643 C11.768326,7.5825195 11.792023,7.4311523 11.742706,7.2939453 C11.740326,7.286865 11.500381,6.5803223 11.805847,6.010376 C12.198288,5.3547363 12.317383,4.8380127 12.169342,4.4310303 C12.03212,4.0549316 11.726196,3.9450684 11.66449,3.9265137 C11.446671,3.8625488 11.204651,3.9960938 11.141388,4.213257 C11.10907,4.3218994 11.12085,4.4367676 11.174591,4.536743 C11.227875,4.6362305 11.316727,4.7091064 11.424057,4.741455 C11.398148,4.734009 11.379547,4.72583 11.378128,4.7250977 C11.38623,4.7473145 11.447601,4.9613037 11.096695,5.550171 C11.096695,5.550171 11.070908,5.5932617 11.070908,5.5932617 C11.04657,5.633423 11.020508,5.6749268 10.993011,5.7178955 C10.537903,6.4212646 10.413101,6.963623 10.611069,7.3754883 C10.76532,7.6986084 11.081757,7.8392334 11.31485,7.8619385 Z"/>
</svg>