<svg xmlns="http://www.w3.org/2000/svg" width="19" height="19" id="icon"><path fill-rule="evenodd" fill="#fff" d="M15.27 15.429a57.138 57.138 0 00-2.035-.102 6.843 6.843 0 001.672-2.245 1.584 1.584 0 001.965.239 1.623 1.623 0 00.536-2.226 1.597 1.597 0 00-1.759-.722c.029-.288.048-.58.048-.879a.561.561 0 00-.558-.564H4.793a.561.561 0 00-.56.564c0 2.413.976 4.546 2.46 5.834-.742.025-1.43.058-2.031.1-2.092.148-2.7.289-2.7.935 0 .645.608.786 2.7.934 1.419.1 3.302.155 5.304.155 2 0 3.885-.055 5.303-.155 2.093-.148 2.7-.289 2.7-.934 0-.646-.607-.787-2.7-.934zm.267-4.292c.004-.003.01-.003.013-.005a.932.932 0 011.286.315.943.943 0 01-.313 1.296.929.929 0 01-1.285-.315c-.01-.018-.027-.029-.04-.043a8.34 8.34 0 00.34-1.248zm-10.165-1.08h9.187c-.22 3.04-2.196 5.425-4.593 5.425-2.398 0-4.374-2.386-4.594-5.425zm3.557-2.279l.038.002a.45.45 0 00.422-.606c-.005-.013-.433-1.258.123-2.296.591-.988.784-1.783.572-2.364a1.075 1.075 0 00-.665-.674.454.454 0 00-.558.304c-.07.24.066.492.284.556.002 0 .063.031.098.126.05.14.105.571-.484 1.561l-.022.037a8.383 8.383 0 01-.146.233c-.681 1.054-.886 1.884-.607 2.465.225.47.698.633.945.656zm2.386.084h.031a.423.423 0 00.397-.568c-.003-.007-.243-.714.063-1.284.392-.655.511-1.172.363-1.579a.809.809 0 00-.505-.504.424.424 0 10-.286.799c.008.021.07.235-.281.824l-.026.043-.078.125c-.455.703-.58 1.246-.382 1.657.154.324.47.464.704.487z"/></svg>