<svg xmlns="http://www.w3.org/2000/svg" width="19" height="18" id="icon"><path fill-rule="evenodd" fill="#fff" d="M17.452 1.715a.163.163 0 00-.173-.016L1.605 9.635a.16.16 0 00.024.295l4.96 1.562a.16.16 0 00.157-.034l7.545-6.385-5.795 6.792a.16.16 0 00.076.255l5.822 1.756a.167.167 0 00.127-.014.163.163 0 00.077-.101l2.91-11.882a.16.16 0 00-.056-.164zm-7.176 12.14l-1.609-.49a.16.16 0 00-.144.024.16.16 0 00-.065.13v3.006a.16.16 0 00.162.16.163.163 0 00.136-.074l1.609-2.517a.156.156 0 00.015-.141.162.162 0 00-.104-.098z"/></svg>